<svg xmlns:xlink="http://www.w3.org/1999/xlink" width="84" height="18" viewBox="0 0 97 22" fill="none" xmlns="http://www.w3.org/2000/svg" class="absolute left-0 top-0 h-full w-full text-fill-secondary"><g clip-path="url(#clip0_logo_below)" fill="none"><path d="M-0.0996094 1.14988C-0.0996094 0.846242 0.148834 0.600098 0.455304 0.600098H15.3455C15.6519 0.600098 15.9004 0.846242 15.9004 1.14988V2.89085C15.9004 4.91508 14.2441 6.55604 12.201 6.55604H1.14895C0.459388 6.55604 -0.0996094 6.00222 -0.0996094 5.31904V1.14988Z" fill="#BCBBF6"></path><path d="M-0.0996094 10.4503C-0.0996094 10.1467 0.148834 9.90054 0.455304 9.90054H13.1721C13.4785 9.90054 13.727 10.1467 13.727 10.4503V12.1913C13.727 14.2155 12.0707 15.8565 10.0276 15.8565H1.14895C0.459387 15.8565 -0.0996094 15.3027 -0.0996094 14.6195V10.4503Z" fill="#BCBBF6"></path><path d="M-0.0996094 3.57807H6.83681V17.7349C6.83681 19.7591 5.18052 21.4001 3.13738 21.4001H0.455304C0.148834 21.4001 -0.0996094 21.154 -0.0996094 20.8503V3.57807Z" fill="#BCBBF6"></path></g><defs><clipPath id="clip0_logo_below"><rect width="97" height="22" fill="white"></rect></clipPath></defs></svg>