<svg viewBox="0 0 17 17" xmlns:xlink="http://www.w3.org/1999/xlink" xmlns="http://www.w3.org/2000/svg" width="17" height="17" fill="none"><path fill="#7ABF4C" d="m8.968 1.963 4.667 1.75a1.334 1.334 0 0 1 .865 1.249v3.575a6 6 0 0 1-3.317 5.367l-2.236 1.118a1 1 0 0 1-.894 0l-2.236-1.118A6 6 0 0 1 2.5 8.537V4.962a1.333 1.333 0 0 1 .865-1.249l4.667-1.75c.302-.113.634-.113.936 0ZM8.5 3.212l-4.667 1.75v3.575a4.667 4.667 0 0 0 2.58 4.174L8.5 13.755l2.087-1.043a4.666 4.666 0 0 0 2.58-4.175V4.962L8.5 3.212Z"></path><path fill="#7ABF4C" fill-rule="evenodd" d="M11.644 5.083a.889.889 0 0 1 .273 1.228l-3.111 4.888a.889.889 0 0 1-1.379.152L5.65 9.573a.889.889 0 0 1 1.257-1.257l.994.994 2.516-3.954a.889.889 0 0 1 1.227-.273Z" clip-rule="evenodd"></path></svg>