<svg viewBox="0 0 16 16" xmlns:xlink="http://www.w3.org/1999/xlink" xmlns="http://www.w3.org/2000/svg" width="16" height="16" fill="none"><path fill="#FFFFFF" d="M8.746 1.373 5.053 5.067a1.332 1.332 0 0 0-.386.94v6.66C4.667 13.4 5.266 14 6 14h6c.533 0 1.013-.32 1.226-.807L15.4 8.12c.56-1.32-.407-2.787-1.84-2.787H9.793l.634-3.053a1.005 1.005 0 0 0-.274-.913.992.992 0 0 0-1.407.006ZM2 14c.733 0 1.333-.6 1.333-1.333V7.333C3.333 6.6 2.733 6 2 6 1.266 6 .667 6.6.667 7.333v5.334C.667 13.4 1.267 14 2 14Z"></path></svg>