<svg viewBox="0 0 24 24" xmlns:xlink="http://www.w3.org/1999/xlink" xmlns="http://www.w3.org/2000/svg" width="24" height="24" fill="none"><path fill="#6B7280" d="M2 5.333C2 4.597 2.56 4 3.25 4h17.5c.69 0 1.25.597 1.25 1.333 0 .737-.56 1.334-1.25 1.334H3.25C2.56 6.667 2 6.07 2 5.333ZM2 12c0-.736.56-1.333 1.25-1.333h17.5c.69 0 1.25.597 1.25 1.333s-.56 1.333-1.25 1.333H3.25C2.56 13.333 2 12.736 2 12Zm0 6.667c0-.737.56-1.334 1.25-1.334h17.5c.69 0 1.25.597 1.25 1.334 0 .736-.56 1.333-1.25 1.333H3.25C2.56 20 2 19.403 2 18.667Z"></path></svg>