<svg width="17" height="16" viewBox="0 0 17 16" fill="none" xmlns="http://www.w3.org/2000/svg">
<path d="M8.5 2C7.71207 2 6.93185 2.15519 6.2039 2.45672C5.47595 2.75825 4.81451 3.20021 4.25736 3.75736C3.13214 4.88258 2.5 6.4087 2.5 8C2.5 9.5913 3.13214 11.1174 4.25736 12.2426C4.81451 12.7998 5.47595 13.2417 6.2039 13.5433C6.93185 13.8448 7.71207 14 8.5 14C10.0913 14 11.6174 13.3679 12.7426 12.2426C13.8679 11.1174 14.5 9.5913 14.5 8C14.5 7.304 14.374 6.614 14.134 5.966L13.174 6.926C13.258 7.28 13.3 7.64 13.3 8C13.3 9.27304 12.7943 10.4939 11.8941 11.3941C10.9939 12.2943 9.77304 12.8 8.5 12.8C7.22696 12.8 6.00606 12.2943 5.10589 11.3941C4.20571 10.4939 3.7 9.27304 3.7 8C3.7 6.72696 4.20571 5.50606 5.10589 4.60589C6.00606 3.70571 7.22696 3.2 8.5 3.2C8.86 3.2 9.22 3.242 9.574 3.326L10.54 2.36C9.886 2.126 9.196 2 8.5 2ZM12.7 2L10.3 4.4V5.3L8.77 6.83C8.68 6.8 8.59 6.8 8.5 6.8C8.18174 6.8 7.87652 6.92643 7.65147 7.15147C7.42643 7.37652 7.3 7.68174 7.3 8C7.3 8.31826 7.42643 8.62348 7.65147 8.84853C7.87652 9.07357 8.18174 9.2 8.5 9.2C8.81826 9.2 9.12348 9.07357 9.34853 8.84853C9.57357 8.62348 9.7 8.31826 9.7 8C9.7 7.91 9.7 7.82 9.67 7.73L11.2 6.2H12.1L14.5 3.8H12.7V2ZM8.5 4.4C7.54522 4.4 6.62955 4.77928 5.95442 5.45442C5.27928 6.12955 4.9 7.04522 4.9 8C4.9 8.95478 5.27928 9.87045 5.95442 10.5456C6.62955 11.2207 7.54522 11.6 8.5 11.6C9.45478 11.6 10.3705 11.2207 11.0456 10.5456C11.7207 9.87045 12.1 8.95478 12.1 8H10.9C10.9 8.63652 10.6471 9.24697 10.1971 9.69706C9.74697 10.1471 9.13652 10.4 8.5 10.4C7.86348 10.4 7.25303 10.1471 6.80294 9.69706C6.35286 9.24697 6.1 8.63652 6.1 8C6.1 7.36348 6.35286 6.75303 6.80294 6.30294C7.25303 5.85286 7.86348 5.6 8.5 5.6V4.4Z" fill="#5653FE"/>
</svg>
